<svg xmlns="http://www.w3.org/2000/svg" viewBox="0 0 170.67 167.89"><defs><style>.cls-1{fill:none;}.cls-1,.cls-2{stroke:#fff;stroke-miterlimit:10;stroke-width:3px;}.cls-2{font-size:36px;fill:#fff;font-family:P22UndergroundHeavy, P22 Underground;}</style></defs><title>icon_entrepreneur_5</title><g id="Layer_2" data-name="Layer 2"><g id="Layer_1-2" data-name="Layer 1"><path class="cls-1" d="M108,32.08A30.55,30.55,0,0,1,123.09,5.72a30.58,30.58,0,1,0,0,52.72A30.55,30.55,0,0,1,108,32.08Z"/><line class="cls-1" x1="118.55" y1="83.99" x2="115.55" y2="62.77"/><line class="cls-1" x1="79.53" y1="83.99" x2="79.53" y2="43.91"/><path class="cls-1" d="M15.82,98.08v68.31H142.26V99.05c-.72.06-1.46.11-2.21.11"/><rect class="cls-1" x="85.93" y="116.26" width="40.4" height="27.02"/><path class="cls-1" d="M45.47,109.46h9.11a12.81,12.81,0,0,1,12.81,12.81V166a0,0,0,0,1,0,0H32.66a0,0,0,0,1,0,0V122.27A12.81,12.81,0,0,1,45.47,109.46Z"/><path class="cls-1" d="M150.81,61.1a31.56,31.56,0,0,1-27.09-1.38A31.54,31.54,0,0,1,77.19,32.53H16.68L2.43,77.45c-.93,4.2-.93,4.2-.93,6.54,0,6.4,5.11,11.87,12.33,14.09l14,.11C35.23,96,40.52,90.5,40.52,84c0,6.72,5.62,12.41,13.4,14.4l11.88.09c8-1.91,13.73-7.68,13.73-14.49,0,7.12,6.32,13.08,14.83,14.71l9,.07c8.69-1.54,15.18-7.56,15.18-14.78,0,7.71,7.39,14.05,17,15l4.75,0c9.57-.86,16.09-7.27,16.29-15.06a16.78,16.78,0,0,0-.93-6.54Z"/><text class="cls-2" transform="translate(129.36 41.86)">$</text><line class="cls-1" x1="40.52" y1="83.99" x2="46.98" y2="32.53"/><circle class="cls-1" cx="138.59" cy="32.08" r="30.58"/></g></g></svg>