<svg xmlns="http://www.w3.org/2000/svg" viewBox="0 0 174.17 176.89"><defs><style>.cls-1{fill:none;stroke:#fff;stroke-linecap:round;stroke-linejoin:round;stroke-width:3px;}</style></defs><title>icon_investor_2</title><g id="Layer_2" data-name="Layer 2"><g id="Layer_1-2" data-name="Layer 1"><path class="cls-1" d="M69.87,116.6c-2.91-.54-3.86-1.39-3.75-3.23s1.1-2.42,5.19-2.72c-1.25-1.58-2.41-3.06-3.58-4.53s-2.25-2.72-3.28-4.14a5.54,5.54,0,0,1,0-6.86A5.44,5.44,0,0,1,71,93.41a21,21,0,0,1,2.08.89,9.08,9.08,0,0,0,8.55,0,14.52,14.52,0,0,1,13.63-.09,9.56,9.56,0,0,0,9.37-.2,6.5,6.5,0,0,1,5.51-.68,5.55,5.55,0,0,1,2.62,8.47c-1.84,2.52-3.87,4.9-5.81,7.34a4.13,4.13,0,0,0-.89,1.78,9.92,9.92,0,0,0,2.21-.75c2.1-1.3,4.12-2.71,6.18-4.06,1.7-1.11,3.41-.85,4.35.63.82,1.3.33,3-1.23,4-1.37.94-2.76,1.84-4.3,2.87l4.4,3c1.72,1.19,2.2,2.7,1.31,4.08s-2.65,1.69-4.48.48c-2.23-1.49-5.35-6.42-6.9-4.18s4.23,4,6.36,5.92c5.82,5.36,11.61,10.75,17.47,16.06a21.8,21.8,0,0,1,7.44,13.25,20.35,20.35,0,0,1-15.45,22.58,26.4,26.4,0,0,1-5.39.59q-29.48.06-59,0c-10.2,0-18.29-6.15-20.51-15.81-1.62-7.06,0-13.52,5.17-18.63,6.06-6,12.44-11.63,18.69-17.42Zm21.41,11c0-1.09,0-1.94,0-2.79a2.76,2.76,0,0,0-5.51,0,16.18,16.18,0,0,0,0,2,1.57,1.57,0,0,1-1,1.73,8.15,8.15,0,0,0-4.4,8.92c.83,4.13,3.47,6.43,8.1,7,2,.25,3,1.31,2.84,3S90,150,88.1,150.05c-1.66,0-3.33,0-5,0a2.82,2.82,0,1,0,0,5.63c.84,0,1.68,0,2.64,0,0,1.12,0,2,0,2.92a2.6,2.6,0,0,0,2.75,2.59,2.66,2.66,0,0,0,2.74-2.63,16.65,16.65,0,0,0,0-2.12,1.58,1.58,0,0,1,1-1.75,8.3,8.3,0,0,0,4.41-9.24,8.41,8.41,0,0,0-7.79-6.65c-2.09-.17-3.15-1.18-3.11-2.91s1.1-2.62,3.16-2.68c1.61-.05,3.23,0,4.84,0,1.9-.06,3.17-1.19,3.18-2.74s-1.28-2.8-3.23-2.84C93,127.62,92.22,127.64,91.28,127.64Z"/><path class="cls-1" d="M85.75,73.08V71.44c0-7.66,0-15.32,0-23a3.86,3.86,0,0,0-.95-2.34c-2.92-3.19-6.23-6-8.43-9.84A28.15,28.15,0,0,1,80.41,2.65c1.21-1.26,2.88-1.6,4-.45,4.19,4.12,8.83,7.9,11.39,13.38,5.12,11,3.78,21.27-3.64,30.82a4.32,4.32,0,0,0-.87,2.41c-.1,3.3,0,6.6,0,10.25.61-.56,1-.87,1.31-1.2,6.06-6,12-12.1,18.19-18,7.11-6.72,15.67-8.72,25.16-6.8a26.16,26.16,0,0,1,13.44,7.34c1.35,1.34,1.65,3,.45,4.16-4.35,4.33-8.49,9-13.3,12.72-9.6,7.48-23.09,7.27-32.92.08l-1.69-1.22c-3.43,3.5-6.87,7-10.24,10.49a2.68,2.68,0,0,0-.38,1.68c0,6.09,0,12.19,0,18.29,0,2.25-1.8,3.68-3.66,2.81a5.1,5.1,0,0,1-1.79-2.17,2.75,2.75,0,0,1-.06-1.64c.56-3.29-.72-5.67-3.22-7.82-3-2.56-5.57-5.54-8.41-8.27a3.34,3.34,0,0,0-2.06-.85c-4-.08-8,0-11.95,0a27.89,27.89,0,0,1-27.6-25.59c-.35-4.68.17-5.24,4.89-5.24,4.08,0,8.16,0,12.24,0A28,28,0,0,1,77,62.86,4.56,4.56,0,0,0,78.51,66c2,1.87,3.94,3.89,5.91,5.84C84.76,72.2,85.13,72.51,85.75,73.08Z"/><path class="cls-1" d="M35.26,119.15a2.6,2.6,0,0,1,2.33-2.7c2.5-.48,2.69-.66,3.23-3.2a2.9,2.9,0,0,1,2.67-2.47A2.63,2.63,0,0,1,46.28,113c.3,2.19,1.32,3.29,3.57,3.48a2.35,2.35,0,0,1,2.1,2.41,2.56,2.56,0,0,1-1.62,2.78,5,5,0,0,1-1.3.37,2.81,2.81,0,0,0-2.61,2.81c-.29,2.26-2.37,3.48-4.12,2.35A3.68,3.68,0,0,1,40.85,125,3.17,3.17,0,0,0,38,122C36,121.61,35.25,120.73,35.26,119.15Z"/><path class="cls-1" d="M161.45,49a2.55,2.55,0,0,1,2.7,2.33,3.58,3.58,0,0,0,3.49,3.45,2.72,2.72,0,0,1-.07,5.37c-2,.22-3.1,1.11-3.35,3.18a2.73,2.73,0,0,1-2.73,2.53,2.82,2.82,0,0,1-2.8-2.64c-.36-2.08-.93-2.66-2.95-3-1.76-.3-2.62-1.2-2.63-2.74a2.61,2.61,0,0,1,2.46-2.74c1.91-.35,3-1.26,3.18-3.36A2.62,2.62,0,0,1,161.45,49Z"/><path class="cls-1" d="M138.92,110.73a2.54,2.54,0,0,1-2.59-2.28c-.24-2-1.08-3.11-3.19-3.31a2.74,2.74,0,0,1-2.54-2.73,2.78,2.78,0,0,1,2.5-2.76,3.34,3.34,0,0,0,3.22-3.33A2.52,2.52,0,0,1,139,94a2.49,2.49,0,0,1,2.72,2.28,3.44,3.44,0,0,0,3.33,3.41,2.75,2.75,0,0,1,2.41,2.83,2.67,2.67,0,0,1-2.47,2.62c-2.17.21-3,1.37-3.27,3.41A2.54,2.54,0,0,1,138.92,110.73Z"/><path class="cls-1" d="M136.24,21.12c-.23,1.24-.8,2.35-2.29,2.52-2.09.25-3.27,1.22-3.44,3.44a2.63,2.63,0,0,1-2.76,2.27,2.58,2.58,0,0,1-2.62-2.25,3.46,3.46,0,0,0-3.45-3.46,2.62,2.62,0,0,1-2.29-2.74,2.83,2.83,0,0,1,2.41-2.69c2.58-.51,2.75-.68,3.29-3.33a2.59,2.59,0,0,1,2.62-2.24,2.53,2.53,0,0,1,2.79,2.21c.23,2.15,1.21,3.25,3.42,3.42A2.75,2.75,0,0,1,136.24,21.12Z"/><path class="cls-1" d="M9.92,91.07a2.57,2.57,0,0,1-2.71-2.31C7,86.76,6.08,85.69,4,85.48a2.75,2.75,0,0,1-2.5-2.76A2.91,2.91,0,0,1,4,80c2.5-.55,2.72-.77,3.14-3.28a2.64,2.64,0,0,1,2.7-2.35,2.47,2.47,0,0,1,2.73,2.25c.24,2.11,1.2,3.24,3.4,3.46a2.65,2.65,0,0,1,2.34,2.72A2.62,2.62,0,0,1,16,85.44c-2.21.22-3.14,1.38-3.38,3.49A2.47,2.47,0,0,1,9.92,91.07Z"/><path class="cls-1" d="M35.26,21.24a2.81,2.81,0,0,1,2.44-3c2.37-.43,2.61-.68,3.11-3.12a2.78,2.78,0,0,1,2.66-2.44A2.56,2.56,0,0,1,46.32,15c.28,2.07,1.23,3.13,3.37,3.3A2.57,2.57,0,0,1,52,21a2.41,2.41,0,0,1-2.18,2.63c-2.08.25-3.27,1.16-3.47,3.4a2.74,2.74,0,0,1-5.42,0c-.22-2.23-1.39-3.15-3.48-3.39A2.34,2.34,0,0,1,35.26,21.24Z"/><path class="cls-1" d="M63.23,82.63a2.78,2.78,0,1,1-5.55.25,2.78,2.78,0,1,1,5.55-.25Z"/><path class="cls-1" d="M26.79,51.85a2.83,2.83,0,0,1-5.65,0,2.83,2.83,0,1,1,5.65,0Z"/><path class="cls-1" d="M32.31,144.5a2.75,2.75,0,0,1-2.73,2.77,2.81,2.81,0,0,1,.08-5.62A2.73,2.73,0,0,1,32.31,144.5Z"/><path class="cls-1" d="M15.61,110.74A2.74,2.74,0,0,1,18.4,108a2.77,2.77,0,0,1,2.72,2.83,2.72,2.72,0,0,1-2.8,2.74A2.67,2.67,0,0,1,15.61,110.74Z"/><path class="cls-1" d="M108.21,12.48a2.63,2.63,0,0,1-2.79-2.69,2.76,2.76,0,1,1,5.51-.08A2.64,2.64,0,0,1,108.21,12.48Z"/><path class="cls-1" d="M105.42,77.18a2.62,2.62,0,0,1,2.67-2.81A2.65,2.65,0,0,1,110.93,77a2.76,2.76,0,1,1-5.51.15Z"/><path class="cls-1" d="M150.29,141.59a2.69,2.69,0,0,1-2.8-2.72,2.78,2.78,0,0,1,5.55,0A2.65,2.65,0,0,1,150.29,141.59Z"/><path class="cls-1" d="M172.67,96.81a2.7,2.7,0,0,1-2.82,2.7,2.67,2.67,0,0,1-2.7-2.81A2.71,2.71,0,0,1,170,94,2.68,2.68,0,0,1,172.67,96.81Z"/><path class="cls-1" d="M91.28,127.64c.94,0,1.69,0,2.44,0,2,0,3.24,1.18,3.23,2.84s-1.28,2.68-3.18,2.74c-1.61.05-3.23,0-4.84,0-2.06.06-3.12,1-3.16,2.68s1,2.74,3.11,2.91a8.41,8.41,0,0,1,7.79,6.65,8.3,8.3,0,0,1-4.41,9.24,1.58,1.58,0,0,0-1,1.75,16.65,16.65,0,0,1,0,2.12,2.66,2.66,0,0,1-2.74,2.63,2.6,2.6,0,0,1-2.75-2.59c0-.9,0-1.8,0-2.92-1,0-1.8,0-2.64,0a2.82,2.82,0,1,1,0-5.63c1.66-.07,3.33,0,5,0,1.92,0,3.05-.94,3.16-2.51s-.88-2.76-2.84-3c-4.63-.61-7.27-2.91-8.1-7a8.15,8.15,0,0,1,4.4-8.92,1.57,1.57,0,0,0,1-1.73,16.18,16.18,0,0,1,0-2,2.76,2.76,0,0,1,5.51,0C91.31,125.7,91.28,126.55,91.28,127.64Z"/></g></g></svg>